<?xml version="1.0" encoding="utf-8"?>
<!-- Generator: Adobe Illustrator 23.0.1, SVG Export Plug-In . SVG Version: 6.00 Build 0)  -->
<svg version="1.1" id="Layer_1" xmlns="http://www.w3.org/2000/svg" xmlns:xlink="http://www.w3.org/1999/xlink" x="0px" y="0px"
	 viewBox="0 0 200 200" style="enable-background:new 0 0 200 200;" xml:space="preserve">
<style type="text/css">
	.st0{fill:#D4F4DD;}
	.st1{fill:#17BEBB;}
	.st2{fill:#0E7C7B;}
</style>
<rect shape-rendering="optimizeSpeed" class="st0" width="200" height="200"/>
<g>
	<g>
		<g>
			<path class="st1" d="M54.3,12c-1.1,0-2.9,0-4,0h-3c-1.1,0-2.9,0-4,0h-3c-1.1,0-2.9,0-4,0h-3c-1.1,0-2.9,0-4,0h-3
				c-1.1,0-2.9,0-4,0h-3c-1.1,0-2.9,0-4,0h-3c-1.1,0-2,0.9-2,2v3c0,1.1,0,2.9,0,4v3c0,1.1,0,2.9,0,4v3c0,1.1,0,2.9,0,4v3
				c0,1.1,0,2.9,0,4v3c0,1.1,0,2.9,0,4v3c0,1.1,0,2.9,0,4v3c0,1.1,0.9,2,2,2h3c1.1,0,2.9,0,4,0h3c1.1,0,2.9,0,4,0h3c1.1,0,2.9,0,4,0
				h3c1.1,0,2.9,0,4,0h3c1.1,0,2.9,0,4,0h3c1.1,0,2.9,0,4,0h3c1.1,0,2-0.9,2-2v-3c0-1.1,0-2.9,0-4v-3c0-1.1,0-2.9,0-4v-3
				c0-1.1,0-2.9,0-4v-3c0-1.1,0-2.9,0-4v-3c0-1.1,0-2.9,0-4v-3c0-1.1,0-2.9,0-4v-3c0-1.1-0.9-2-2-2H54.3z M52.3,24c0,1.1,0,2.9,0,4
				v3c0,1.1,0,2.9,0,4v3c0,1.1,0,2.9,0,4v3c0,1.1,0,2.9,0,4v3c0,1.1-0.9,2-2,2h-3c-1.1,0-2.9,0-4,0h-3c-1.1,0-2.9,0-4,0h-3
				c-1.1,0-2.9,0-4,0h-3c-1.1,0-2.9,0-4,0h-3c-1.1,0-2-0.9-2-2v-3c0-1.1,0-2.9,0-4v-3c0-1.1,0-2.9,0-4v-3c0-1.1,0-2.9,0-4v-3
				c0-1.1,0-2.9,0-4v-3c0-1.1,0.9-2,2-2h3c1.1,0,2.9,0,4,0h3c1.1,0,2.9,0,4,0h3c1.1,0,2.9,0,4,0h3c1.1,0,2.9,0,4,0h3
				c1.1,0,2,0.9,2,2V24z"/>
		</g>
		<g>
			<path class="st1" d="M33.3,26c-1.1,0-2.9,0-4,0h-3c-1.1,0-2,0.9-2,2v3c0,1.1,0,2.9,0,4v3c0,1.1,0,2.9,0,4v3c0,1.1,0.9,2,2,2h3
				c1.1,0,2.9,0,4,0h3c1.1,0,2.9,0,4,0h3c1.1,0,2-0.9,2-2v-3c0-1.1,0-2.9,0-4v-3c0-1.1,0-2.9,0-4v-3c0-1.1-0.9-2-2-2h-3
				c-1.1,0-2.9,0-4,0H33.3z"/>
		</g>
	</g>
</g>
<g>
	<g>
		<g>
			<path class="st1" d="M185.5,12c-1.1,0-2.9,0-4,0h-3c-1.1,0-2.9,0-4,0h-3c-1.1,0-2.9,0-4,0h-3c-1.1,0-2.9,0-4,0h-3
				c-1.1,0-2.9,0-4,0h-3c-1.1,0-2.9,0-4,0h-3c-1.1,0-2,0.9-2,2v3c0,1.1,0,2.9,0,4v3c0,1.1,0,2.9,0,4v3c0,1.1,0,2.9,0,4v3
				c0,1.1,0,2.9,0,4v3c0,1.1,0,2.9,0,4v3c0,1.1,0,2.9,0,4v3c0,1.1,0.9,2,2,2h3c1.1,0,2.9,0,4,0h3c1.1,0,2.9,0,4,0h3c1.1,0,2.9,0,4,0
				h3c1.1,0,2.9,0,4,0h3c1.1,0,2.9,0,4,0h3c1.1,0,2.9,0,4,0h3c1.1,0,2-0.9,2-2v-3c0-1.1,0-2.9,0-4v-3c0-1.1,0-2.9,0-4v-3
				c0-1.1,0-2.9,0-4v-3c0-1.1,0-2.9,0-4v-3c0-1.1,0-2.9,0-4v-3c0-1.1,0-2.9,0-4v-3c0-1.1-0.9-2-2-2H185.5z M183.5,24
				c0,1.1,0,2.9,0,4v3c0,1.1,0,2.9,0,4v3c0,1.1,0,2.9,0,4v3c0,1.1,0,2.9,0,4v3c0,1.1-0.9,2-2,2h-3c-1.1,0-2.9,0-4,0h-3
				c-1.1,0-2.9,0-4,0h-3c-1.1,0-2.9,0-4,0h-3c-1.1,0-2.9,0-4,0h-3c-1.1,0-2-0.9-2-2v-3c0-1.1,0-2.9,0-4v-3c0-1.1,0-2.9,0-4v-3
				c0-1.1,0-2.9,0-4v-3c0-1.1,0-2.9,0-4v-3c0-1.1,0.9-2,2-2h3c1.1,0,2.9,0,4,0h3c1.1,0,2.9,0,4,0h3c1.1,0,2.9,0,4,0h3
				c1.1,0,2.9,0,4,0h3c1.1,0,2,0.9,2,2V24z"/>
		</g>
		<g>
			<path class="st1" d="M164.5,26c-1.1,0-2.9,0-4,0h-3c-1.1,0-2,0.9-2,2v3c0,1.1,0,2.9,0,4v3c0,1.1,0,2.9,0,4v3c0,1.1,0.9,2,2,2h3
				c1.1,0,2.9,0,4,0h3c1.1,0,2.9,0,4,0h3c1.1,0,2-0.9,2-2v-3c0-1.1,0-2.9,0-4v-3c0-1.1,0-2.9,0-4v-3c0-1.1-0.9-2-2-2h-3
				c-1.1,0-2.9,0-4,0H164.5z"/>
		</g>
	</g>
</g>
<g>
	<g>
		<g>
			<path class="st1" d="M54.3,141.5c-1.1,0-2.9,0-4,0h-3c-1.1,0-2.9,0-4,0h-3c-1.1,0-2.9,0-4,0h-3c-1.1,0-2.9,0-4,0h-3
				c-1.1,0-2.9,0-4,0h-3c-1.1,0-2.9,0-4,0h-3c-1.1,0-2,0.9-2,2v3c0,1.1,0,2.9,0,4v3c0,1.1,0,2.9,0,4v3c0,1.1,0,2.9,0,4v3
				c0,1.1,0,2.9,0,4v3c0,1.1,0,2.9,0,4v3c0,1.1,0,2.9,0,4v3c0,1.1,0.9,2,2,2h3c1.1,0,2.9,0,4,0h3c1.1,0,2.9,0,4,0h3c1.1,0,2.9,0,4,0
				h3c1.1,0,2.9,0,4,0h3c1.1,0,2.9,0,4,0h3c1.1,0,2.9,0,4,0h3c1.1,0,2-0.9,2-2v-3c0-1.1,0-2.9,0-4v-3c0-1.1,0-2.9,0-4v-3
				c0-1.1,0-2.9,0-4v-3c0-1.1,0-2.9,0-4v-3c0-1.1,0-2.9,0-4v-3c0-1.1,0-2.9,0-4v-3c0-1.1-0.9-2-2-2H54.3z M52.3,153.5
				c0,1.1,0,2.9,0,4v3c0,1.1,0,2.9,0,4v3c0,1.1,0,2.9,0,4v3c0,1.1,0,2.9,0,4v3c0,1.1-0.9,2-2,2h-3c-1.1,0-2.9,0-4,0h-3
				c-1.1,0-2.9,0-4,0h-3c-1.1,0-2.9,0-4,0h-3c-1.1,0-2.9,0-4,0h-3c-1.1,0-2-0.9-2-2v-3c0-1.1,0-2.9,0-4v-3c0-1.1,0-2.9,0-4v-3
				c0-1.1,0-2.9,0-4v-3c0-1.1,0-2.9,0-4v-3c0-1.1,0.9-2,2-2h3c1.1,0,2.9,0,4,0h3c1.1,0,2.9,0,4,0h3c1.1,0,2.9,0,4,0h3
				c1.1,0,2.9,0,4,0h3c1.1,0,2,0.9,2,2V153.5z"/>
		</g>
		<g>
			<path class="st1" d="M33.3,155.5c-1.1,0-2.9,0-4,0h-3c-1.1,0-2,0.9-2,2v3c0,1.1,0,2.9,0,4v3c0,1.1,0,2.9,0,4v3c0,1.1,0.9,2,2,2h3
				c1.1,0,2.9,0,4,0h3c1.1,0,2.9,0,4,0h3c1.1,0,2-0.9,2-2v-3c0-1.1,0-2.9,0-4v-3c0-1.1,0-2.9,0-4v-3c0-1.1-0.9-2-2-2h-3
				c-1.1,0-2.9,0-4,0H33.3z"/>
		</g>
	</g>
</g>
<g>
	<g>
		<g>
			<path class="st2" d="M131,13c0-0.6-0.4-1-1-1h-5c-0.6,0-1,0.4-1,1v5c0,0.5,0.4,1,1,1h5c0.6,0,1-0.5,1-1V13z"/>
		</g>
		<g>
			<path class="st2" d="M81,40c0.6,0,1-0.5,1-1v-5c0-0.5,0.4-1,1-1h5c0.6,0,1,0.5,1,1v5c0,0.5,0.4,1,1,1h5c0.6,0,1-0.5,1-1v-5
				c0-0.5,0-1.5,0-2v-5c0-0.5,0.4-1,1-1h5c0.6,0,1-0.5,1-1v-5c0-0.5-0.4-1-1-1h-5c-0.6,0-1.4,0-2,0h-5c-0.6,0-1,0.5-1,1v5
				c0,0.5-0.4,1-1,1h-5c-0.6,0-1-0.5-1-1v-5c0-0.5,0-1.5,0-2v-5c0-0.6-0.4-1-1-1h-5c-0.6,0-1,0.4-1,1v5c0,0.5-0.4,1-1,1h-5
				c-0.6,0-1,0.5-1,1v5c0,0.5,0.4,1,1,1h5c0.6,0,1,0.5,1,1v5c0,0.5-0.4,1-1,1h-5c-0.6,0-1,0.5-1,1v5c0,0.5,0.4,1,1,1h5
				c0.6,0,1.4,0,2,0H81z"/>
		</g>
		<g>
			<path class="st2" d="M82,46c0,0.5,0,1.5,0,2v5c0,0.5,0,1.5,0,2v5c0,0.5,0.4,1,1,1h5c0.6,0,1-0.5,1-1v-5c0-0.5,0-1.5,0-2v-5
				c0-0.5,0-1.5,0-2v-5c0-0.5-0.4-1-1-1h-5c-0.6,0-1,0.5-1,1V46z"/>
		</g>
		<g>
			<path class="st2" d="M102,47c0.6,0,1,0.5,1,1v5c0,0.5,0.4,1,1,1h5c0.6,0,1,0.5,1,1v5c0,0.5,0.4,1,1,1h5c0.6,0,1-0.5,1-1v-5
				c0-0.5,0.4-1,1-1h5c0.6,0,1,0.5,1,1v5c0,0.5,0.4,1,1,1h5c0.6,0,1-0.5,1-1v-5c0-0.5,0-1.5,0-2v-5c0-0.5,0-1.5,0-2v-5
				c0-0.5,0-1.5,0-2v-5c0-0.5,0-1.5,0-2v-5c0-0.5-0.4-1-1-1h-5c-0.6,0-1-0.5-1-1v-5c0-0.5-0.4-1-1-1h-5c-0.6,0-1.4,0-2,0h-5
				c-0.6,0-1,0.5-1,1v5c0,0.5,0,1.5,0,2v5c0,0.5-0.4,1-1,1h-5c-0.6,0-1,0.5-1,1v5c0,0.5-0.4,1-1,1h-5c-0.6,0-1,0.5-1,1v5
				c0,0.5,0.4,1,1,1H102z M116,40c0.6,0,1.4,0,2,0h5c0.6,0,1,0.5,1,1v5c0,0.5-0.4,1-1,1h-5c-0.6,0-1.4,0-2,0h-5c-0.6,0-1-0.5-1-1v-5
				c0-0.5,0.4-1,1-1H116z"/>
		</g>
		<g>
			<path class="st2" d="M75,55c0-0.5,0-1.5,0-2v-5c0-0.5-0.4-1-1-1h-5c-0.6,0-1,0.5-1,1v5c0,0.5,0,1.5,0,2v5c0,0.5,0.4,1,1,1h5
				c0.6,0,1-0.5,1-1V55z"/>
		</g>
		<g>
			<path class="st2" d="M117,67c0,0.6,0.4,1,1,1h5c0.6,0,1-0.4,1-1v-5c0-0.5-0.4-1-1-1h-5c-0.6,0-1,0.5-1,1V67z"/>
		</g>
		<g>
			<path class="st2" d="M104,68c-0.6,0-1-0.4-1-1v-5c0-0.5,0-1.5,0-2v-5c0-0.5-0.4-1-1-1h-5c-0.6,0-1,0.5-1,1v5c0,0.5,0,1.5,0,2v5
				c0,0.6,0,1.4,0,2v5c0,0.6,0.4,1,1,1h5c0.6,0,1.4,0,2,0h5c0.6,0,1.4,0,2,0h5c0.6,0,1-0.4,1-1v-5c0-0.6-0.4-1-1-1h-5
				c-0.6,0-1.4,0-2,0H104z"/>
		</g>
		<g>
			<path class="st2" d="M138,69c0-0.6-0.4-1-1-1h-5c-0.6,0-1,0.4-1,1v5c0,0.6,0.4,1,1,1h5c0.6,0,1-0.4,1-1V69z"/>
		</g>
		<g>
			<path class="st2" d="M166,69c0-0.6-0.4-1-1-1h-5c-0.6,0-1,0.4-1,1v5c0,0.6,0.4,1,1,1h5c0.6,0,1-0.4,1-1V69z"/>
		</g>
		<g>
			<path class="st2" d="M180,69c0-0.6-0.4-1-1-1h-5c-0.6,0-1,0.4-1,1v5c0,0.6,0.4,1,1,1h5c0.6,0,1-0.4,1-1V69z"/>
		</g>
		<g>
			<path class="st2" d="M47,76c0-0.6,0-1.4,0-2v-5c0-0.6-0.5-1-1-1h-5c-0.5,0-1.5,0-2,0h-5c-0.5,0-1.5,0-2,0h-5c-0.5,0-1.5,0-2,0h-5
				c-0.5,0-1.5,0-2,0h-5c-0.6,0-1,0.4-1,1v5c0,0.6,0.4,1,1,1h5c0.5,0,1,0.4,1,1v5c0,0.6,0.5,1,1,1h5c0.5,0,1.5,0,2,0h5
				c0.5,0,1.5,0,2,0h5c0.5,0,1,0.4,1,1v5c0,0.6,0.5,1,1,1h5c0.5,0,1-0.4,1-1v-5c0-0.6,0-1.4,0-2V76z"/>
		</g>
		<g>
			<path class="st2" d="M152,83c0-0.6,0-1.4,0-2v-5c0-0.6,0-1.4,0-2v-5c0-0.6-0.4-1-1-1h-5c-0.6,0-1,0.4-1,1v5c0,0.6,0,1.4,0,2v5
				c0,0.6,0,1.4,0,2v5c0,0.6,0.4,1,1,1h5c0.6,0,1-0.4,1-1V83z"/>
		</g>
		<g>
			<path class="st2" d="M181,82c-0.6,0-1.4,0-2,0h-5c-0.6,0-1.4,0-2,0h-5c-0.6,0-1,0.4-1,1v5c0,0.6,0.4,1,1,1h5c0.6,0,1,0.4,1,1v5
				c0,0.6,0.4,1,1,1h5c0.6,0,1.4,0,2,0h5c0.6,0,1-0.4,1-1v-5c0-0.6,0-1.4,0-2v-5c0-0.6-0.4-1-1-1H181z"/>
		</g>
		<g>
			<path class="st2" d="M61,95c0,0.6,0.5,1,1,1h5c0.6,0,1,0.4,1,1v5c0,0.6,0.4,1,1,1h5c0.6,0,1.4,0,2,0h5c0.6,0,1-0.4,1-1v-5
				c0-0.6,0.4-1,1-1h5c0.6,0,1,0.4,1,1v5c0,0.6,0.4,1,1,1h5c0.6,0,1-0.4,1-1v-5c0-0.6,0-1.4,0-2v-5c0-0.6,0.4-1,1-1h5
				c0.6,0,1-0.4,1-1v-5c0-0.6-0.4-1-1-1h-5c-0.6,0-1.4,0-2,0h-5c-0.6,0-1,0.4-1,1v5c0,0.6-0.4,1-1,1h-5c-0.6,0-1-0.4-1-1v-5
				c0-0.6,0-1.4,0-2v-5c0-0.6,0.4-1,1-1h5c0.6,0,1-0.4,1-1v-5c0-0.6-0.4-1-1-1h-5c-0.6,0-1.4,0-2,0h-5c-0.6,0-1.4,0-2,0h-5
				c-0.6,0-1.4,0-2,0h-5c-0.5,0-1.5,0-2,0h-5c-0.5,0-1,0.4-1,1v5c0,0.6,0.5,1,1,1h5c0.5,0,1.5,0,2,0h5c0.6,0,1,0.4,1,1v5
				c0,0.6,0.4,1,1,1h5c0.6,0,1,0.4,1,1v5c0,0.6-0.4,1-1,1h-5c-0.6,0-1-0.4-1-1v-5c0-0.6-0.4-1-1-1h-5c-0.5,0-1.5,0-2,0h-5
				c-0.5,0-1,0.4-1,1v5c0,0.6,0.5,1,1,1h5c0.5,0,1,0.4,1,1V95z"/>
		</g>
		<g>
			<path class="st2" d="M131,90c0-0.6,0.4-1,1-1h5c0.6,0,1-0.4,1-1v-5c0-0.6-0.4-1-1-1h-5c-0.6,0-1-0.4-1-1v-5c0-0.6-0.4-1-1-1h-5
				c-0.6,0-1,0.4-1,1v5c0,0.6-0.4,1-1,1h-5c-0.6,0-1.4,0-2,0h-5c-0.6,0-1,0.4-1,1v5c0,0.6,0.4,1,1,1h5c0.6,0,1.4,0,2,0h5
				c0.6,0,1,0.4,1,1v5c0,0.6,0.4,1,1,1h5c0.6,0,1-0.4,1-1V90z"/>
		</g>
		<g>
			<path class="st2" d="M116,103c0.6,0,1.4,0,2,0h5c0.6,0,1-0.4,1-1v-5c0-0.6-0.4-1-1-1h-5c-0.6,0-1.4,0-2,0h-5c-0.6,0-1.4,0-2,0h-5
				c-0.6,0-1,0.4-1,1v5c0,0.6,0.4,1,1,1h5c0.6,0,1.4,0,2,0H116z"/>
		</g>
		<g>
			<path class="st2" d="M137,103c0.6,0,1.4,0,2,0h5c0.6,0,1-0.4,1-1v-5c0-0.6-0.4-1-1-1h-5c-0.6,0-1.4,0-2,0h-5c-0.6,0-1,0.4-1,1v5
				c0,0.6,0.4,1,1,1H137z"/>
		</g>
		<g>
			<path class="st2" d="M160,96c-0.6,0-1.4,0-2,0h-5c-0.6,0-1,0.4-1,1v5c0,0.6,0.4,1,1,1h5c0.6,0,1,0.4,1,1v5c0,0.6,0.4,1,1,1h5
				c0.6,0,1.4,0,2,0h5c0.6,0,1-0.4,1-1v-5c0-0.6,0-1.4,0-2v-5c0-0.6-0.4-1-1-1h-5c-0.6,0-1.4,0-2,0H160z"/>
		</g>
		<g>
			<path class="st2" d="M54,104c0-0.6,0.5-1,1-1h5c0.5,0,1-0.4,1-1v-5c0-0.6-0.5-1-1-1h-5c-0.5,0-1-0.4-1-1v-5c0-0.6-0.5-1-1-1h-5
				c-0.5,0-1,0.4-1,1v5c0,0.6,0,1.4,0,2v5c0,0.6,0,1.4,0,2v5c0,0.6,0.5,1,1,1h5c0.5,0,1-0.4,1-1V104z"/>
		</g>
		<g>
			<path class="st2" d="M61,109c0,0.6,0.5,1,1,1h5c0.6,0,1-0.4,1-1v-5c0-0.6-0.4-1-1-1h-5c-0.5,0-1,0.4-1,1V109z"/>
		</g>
		<g>
			<path class="st2" d="M82,109c0,0.6-0.4,1-1,1h-5c-0.6,0-1,0.4-1,1v5c0,0.6,0.4,1,1,1h5c0.6,0,1.4,0,2,0h5c0.6,0,1-0.4,1-1v-5
				c0-0.6,0-1.4,0-2v-5c0-0.6-0.4-1-1-1h-5c-0.6,0-1,0.4-1,1V109z"/>
		</g>
		<g>
			<path class="st2" d="M102,110c0.6,0,1-0.4,1-1v-5c0-0.6-0.4-1-1-1h-5c-0.6,0-1,0.4-1,1v5c0,0.6,0.4,1,1,1H102z"/>
		</g>
		<g>
			<path class="st2" d="M124,109c0,0.6-0.4,1-1,1h-5c-0.6,0-1,0.4-1,1v5c0,0.6-0.4,1-1,1h-5c-0.6,0-1,0.4-1,1v5c0,0.6-0.4,1-1,1h-5
				c-0.6,0-1-0.4-1-1v-5c0-0.6-0.4-1-1-1h-5c-0.6,0-1,0.4-1,1v5c0,0.6,0,1.4,0,2v5c0,0.6,0.4,1,1,1h5c0.6,0,1.4,0,2,0h5
				c0.6,0,1.4,0,2,0h5c0.6,0,1-0.4,1-1v-5c0-0.6,0.4-1,1-1h5c0.6,0,1-0.4,1-1v-5c0-0.6,0.4-1,1-1h5c0.6,0,1-0.4,1-1v-5
				c0-0.6,0-1.4,0-2v-5c0-0.6-0.4-1-1-1h-5c-0.6,0-1,0.4-1,1V109z"/>
		</g>
		<g>
			<path class="st2" d="M145,109c0,0.6,0.4,1,1,1h5c0.6,0,1-0.4,1-1v-5c0-0.6-0.4-1-1-1h-5c-0.6,0-1,0.4-1,1V109z"/>
		</g>
		<g>
			<path class="st2" d="M54,116c0,0.6,0.5,1,1,1h5c0.5,0,1-0.4,1-1v-5c0-0.6-0.5-1-1-1h-5c-0.5,0-1,0.4-1,1V116z"/>
		</g>
		<g>
			<path class="st2" d="M138,116c0,0.6,0.4,1,1,1h5c0.6,0,1-0.4,1-1v-5c0-0.6-0.4-1-1-1h-5c-0.6,0-1,0.4-1,1V116z"/>
		</g>
		<g>
			<path class="st2" d="M179,117c0.6,0,1,0.4,1,1v5c0,0.6-0.4,1-1,1h-5c-0.6,0-1.4,0-2,0h-5c-0.6,0-1,0.4-1,1v5c0,0.6,0.4,1,1,1h5
				c0.6,0,1.4,0,2,0h5c0.6,0,1.4,0,2,0h5c0.6,0,1-0.4,1-1v-5c0-0.6,0-1.4,0-2v-5c0-0.6,0-1.4,0-2v-5c0-0.6-0.4-1-1-1h-5
				c-0.6,0-1.4,0-2,0h-5c-0.6,0-1,0.4-1,1v5c0,0.6,0.4,1,1,1H179z"/>
		</g>
		<g>
			<path class="st2" d="M139,124c-0.6,0-1-0.4-1-1v-5c0-0.6-0.4-1-1-1h-5c-0.6,0-1,0.4-1,1v5c0,0.6-0.4,1-1,1h-5c-0.6,0-1,0.4-1,1v5
				c0,0.6-0.4,1-1,1h-5c-0.6,0-1,0.4-1,1v5c0,0.6,0.4,1,1,1h5c0.6,0,1,0.4,1,1v5c0,0.6,0,1.4,0,2v5c0,0.6-0.4,1-1,1h-5
				c-0.6,0-1,0.4-1,1v5c0,0.6,0,1.4,0,2v5c0,0.6,0.4,1,1,1h5c0.6,0,1-0.4,1-1v-5c0-0.6,0.4-1,1-1h5c0.6,0,1,0.4,1,1v5
				c0,0.6,0.4,1,1,1h5c0.6,0,1.4,0,2,0h5c0.6,0,1-0.4,1-1v-5c0-0.6,0.4-1,1-1h5c0.6,0,1,0.4,1,1v5c0,0.6,0.4,1,1,1h5
				c0.6,0,1-0.4,1-1v-5c0-0.6,0.4-1,1-1h5c0.6,0,1.4,0,2,0h5c0.6,0,1,0.4,1,1v5c0,0.6,0.4,1,1,1h5c0.6,0,1,0.4,1,1v5
				c0,0.6,0,1.4,0,2v5c0,0.6-0.4,1-1,1h-5c-0.6,0-1.4,0-2,0h-5c-0.6,0-1.4,0-2,0h-5c-0.6,0-1-0.4-1-1v-5c0-0.6-0.4-1-1-1h-5
				c-0.6,0-1,0.4-1,1v5c0,0.6-0.4,1-1,1h-5c-0.6,0-1-0.4-1-1v-5c0-0.6-0.4-1-1-1h-5c-0.6,0-1.4,0-2,0h-5c-0.6,0-1.4,0-2,0h-5
				c-0.6,0-1.4,0-2,0h-5c-0.6,0-1,0.4-1,1v5c0,0.6,0.4,1,1,1h5c0.6,0,1.4,0,2,0h5c0.6,0,1,0.4,1,1v5c0,0.6,0.4,1,1,1h5
				c0.6,0,1.4,0,2,0h5c0.6,0,1.4,0,2,0h5c0.6,0,1.4,0,2,0h5c0.6,0,1.4,0,2,0h5c0.6,0,1.4,0,2,0h5c0.6,0,1.4,0,2,0h5c0.6,0,1.4,0,2,0
				h5c0.6,0,1-0.4,1-1v-5c0-0.6,0-1.4,0-2v-5c0-0.6,0-1.4,0-2v-5c0-0.6,0-1.4,0-2v-5c0-0.6,0-1.4,0-2v-5c0-0.6-0.4-1-1-1h-5
				c-0.6,0-1.4,0-2,0h-5c-0.6,0-1.4,0-2,0h-5c-0.6,0-1.4,0-2,0h-5c-0.6,0-1-0.4-1-1v-5c0-0.6,0.4-1,1-1h5c0.6,0,1-0.4,1-1v-5
				c0-0.6-0.4-1-1-1h-5c-0.6,0-1-0.4-1-1v-5c0-0.6,0-1.4,0-2v-5c0-0.6-0.4-1-1-1h-5c-0.6,0-1-0.4-1-1v-5c0-0.6-0.4-1-1-1h-5
				c-0.6,0-1,0.4-1,1v5c0,0.6-0.4,1-1,1H139z M151,131c0.6,0,1,0.4,1,1v5c0,0.6,0,1.4,0,2v5c0,0.6,0,1.4,0,2v5c0,0.6-0.4,1-1,1h-5
				c-0.6,0-1.4,0-2,0h-5c-0.6,0-1.4,0-2,0h-5c-0.6,0-1-0.4-1-1v-5c0-0.6,0-1.4,0-2v-5c0-0.6,0-1.4,0-2v-5c0-0.6,0.4-1,1-1h5
				c0.6,0,1.4,0,2,0h5c0.6,0,1.4,0,2,0H151z"/>
		</g>
		<g>
			<path class="st2" d="M75,132c0-0.6,0-1.4,0-2v-5c0-0.6-0.4-1-1-1h-5c-0.6,0-1.4,0-2,0h-5c-0.5,0-1.5,0-2,0h-5c-0.5,0-1-0.4-1-1
				v-5c0-0.6-0.5-1-1-1h-5c-0.5,0-1,0.4-1,1v5c0,0.6-0.5,1-1,1h-5c-0.5,0-1.5,0-2,0h-5c-0.5,0-1-0.4-1-1v-5c0-0.6,0.5-1,1-1h5
				c0.5,0,1.5,0,2,0h5c0.5,0,1-0.4,1-1v-5c0-0.6-0.5-1-1-1h-5c-0.5,0-1.5,0-2,0h-5c-0.5,0-1-0.4-1-1v-5c0-0.6,0-1.4,0-2v-5
				c0-0.6,0-1.4,0-2v-5c0-0.6-0.5-1-1-1h-5c-0.5,0-1,0.4-1,1v5c0,0.6-0.5,1-1,1h-5c-0.5,0-1.5,0-2,0h-5c-0.6,0-1,0.4-1,1v5
				c0,0.6,0,1.4,0,2v5c0,0.6,0,1.4,0,2v5c0,0.6,0,1.4,0,2v5c0,0.6,0,1.4,0,2v5c0,0.6,0.4,1,1,1h5c0.5,0,1-0.4,1-1v-5
				c0-0.6,0-1.4,0-2v-5c0-0.6,0-1.4,0-2v-5c0-0.6,0.5-1,1-1h5c0.5,0,1,0.4,1,1v5c0,0.6,0,1.4,0,2v5c0,0.6,0,1.4,0,2v5
				c0,0.6,0.5,1,1,1h5c0.5,0,1.5,0,2,0h5c0.5,0,1.5,0,2,0h5c0.5,0,1.5,0,2,0h5c0.5,0,1.5,0,2,0h5c0.5,0,1.5,0,2,0h5c0.6,0,1,0.4,1,1
				v5c0,0.6,0,1.4,0,2v5c0,0.6,0.4,1,1,1h5c0.6,0,1-0.4,1-1v-5c0-0.6,0-1.4,0-2V132z"/>
		</g>
		<g>
			<path class="st2" d="M110,144c0,0.6,0,1.4,0,2v5c0,0.6,0.4,1,1,1h5c0.6,0,1-0.4,1-1v-5c0-0.6,0-1.4,0-2v-5c0-0.6-0.4-1-1-1h-5
				c-0.6,0-1,0.4-1,1V144z"/>
		</g>
		<g>
			<path class="st2" d="M138,144c0,0.6,0.4,1,1,1h5c0.6,0,1-0.4,1-1v-5c0-0.6-0.4-1-1-1h-5c-0.6,0-1,0.4-1,1V144z"/>
		</g>
		<g>
			<path class="st2" d="M174,138c-0.6,0-1,0.4-1,1v5c0,0.6,0.4,1,1,1h5c0.6,0,1.4,0,2,0h5c0.6,0,1-0.4,1-1v-5c0-0.6-0.4-1-1-1h-5
				c-0.6,0-1.4,0-2,0H174z"/>
		</g>
		<g>
			<path class="st2" d="M96,146c0-0.6,0.4-1,1-1h5c0.6,0,1-0.4,1-1v-5c0-0.6-0.4-1-1-1h-5c-0.6,0-1.4,0-2,0h-5c-0.6,0-1,0.4-1,1v5
				c0,0.6-0.4,1-1,1h-5c-0.6,0-1.4,0-2,0h-5c-0.6,0-1,0.4-1,1v5c0,0.6,0.4,1,1,1h5c0.6,0,1,0.4,1,1v5c0,0.6,0.4,1,1,1h5
				c0.6,0,1.4,0,2,0h5c0.6,0,1-0.4,1-1v-5c0-0.6,0-1.4,0-2V146z"/>
		</g>
		<g>
			<path class="st2" d="M68,158c0,0.6,0,1.4,0,2v5c0,0.6,0,1.4,0,2v5c0,0.6,0,1.4,0,2v5c0,0.6,0,1.4,0,2v5c0,0.6,0.4,1,1,1h5
				c0.6,0,1.4,0,2,0h5c0.6,0,1.4,0,2,0h5c0.6,0,1-0.4,1-1v-5c0-0.6-0.4-1-1-1h-5c-0.6,0-1.4,0-2,0h-5c-0.6,0-1-0.4-1-1v-5
				c0-0.6,0-1.4,0-2v-5c0-0.6,0-1.4,0-2v-5c0-0.6,0-1.4,0-2v-5c0-0.6-0.4-1-1-1h-5c-0.6,0-1,0.4-1,1V158z"/>
		</g>
		<g>
			<path class="st2" d="M116,173c0.6,0,1-0.4,1-1v-5c0-0.6-0.4-1-1-1h-5c-0.6,0-1-0.4-1-1v-5c0-0.6-0.4-1-1-1h-5c-0.6,0-1.4,0-2,0
				h-5c-0.6,0-1,0.4-1,1v5c0,0.6,0.4,1,1,1h5c0.6,0,1,0.4,1,1v5c0,0.6-0.4,1-1,1h-5c-0.6,0-1,0.4-1,1v5c0,0.6,0,1.4,0,2v5
				c0,0.6,0.4,1,1,1h5c0.6,0,1-0.4,1-1v-5c0-0.6,0.4-1,1-1h5c0.6,0,1-0.4,1-1v-5c0-0.6,0.4-1,1-1H116z"/>
		</g>
		<g>
			<path class="st2" d="M151,173c0.6,0,1-0.4,1-1v-5c0-0.6-0.4-1-1-1h-5c-0.6,0-1,0.4-1,1v5c0,0.6,0.4,1,1,1H151z"/>
		</g>
		<g>
			<path class="st2" d="M110,186c0,0.6,0.4,1,1,1h5c0.6,0,1-0.4,1-1v-5c0-0.6-0.4-1-1-1h-5c-0.6,0-1,0.4-1,1V186z"/>
		</g>
	</g>
</g>
<polygon class="st0" points="193,120.5 7,120.5 7,87.3 20.7,87.3 193,87.3 "/>
<g>
	<g>
		<path d="M16.1,113.5c-1.1,0-2-0.9-2-2V97c0-1.1,0.9-2,2-2h1c1.1,0,2.9,0.1,4,0.2c0,0,0.9,0.1,2.1,0.8s2.1,1.7,2.8,3
			c0.6,1.3,0.8,2.5,0.8,2.5c0.1,1.1,0.2,2.3,0.2,2.6s-0.1,1.5-0.2,2.6c0,0-0.1,1.3-0.8,2.6c-0.6,1.3-1.6,2.3-2.8,3
			c-1.2,0.7-2.2,0.8-2.2,0.8c-1.1,0.1-2.9,0.2-4,0.2H16.1z M17.8,97c-0.8,0-1.4,0.9-1.4,2v10.5c0,1.1,0.6,2,1.2,2s2.1-0.2,3.2-0.4
			c0,0,1.3-0.2,2.3-1.4s1.3-3,1.3-3c0.1-1.1,0.3-2.2,0.3-2.5s-0.1-1.4-0.3-2.5c0,0-0.2-1.7-1.2-2.9c-1-1.2-2.1-1.4-2.1-1.4
			C20.1,97.2,18.5,97,17.8,97z"/>
		<path d="M33,111.5c0,1.1-0.5,2-1.2,2c-0.6,0-1.2-0.9-1.2-2V97c0-1.1,0.5-2,1.2-2c0.6,0,1.2,0.9,1.2,2V111.5z"/>
		<path d="M50.5,109.1c0,1.1-0.6,2.7-1.4,3.5c0,0-0.1,0.1-1.2,0.5c-1.1,0.4-2.3,0.7-3.8,0.7c-1.5,0-2.7-0.4-3.9-1.1
			c-1.1-0.7-2-1.7-2.6-3c-0.6-1.3-0.7-2.5-0.7-2.5c-0.1-1.1-0.2-2.4-0.2-2.8s0.1-1.7,0.3-2.8c0,0,0.4-3,1.6-4.5
			c1.3-1.5,3-2.3,5.3-2.3c1.9,0,3.4,0.5,4.5,1.5s1.5,2.3,1.5,2.3c0.3,1.1,0,1.9-0.6,1.9s-1.6-0.8-2.1-1.8c0,0-0.9-1.9-3.3-1.9
			c-1.6,0-2.8,0.6-3.6,1.7c-0.8,1.1-1,3-1,3c-0.1,1.1-0.2,2.3-0.2,2.7s0.1,1.6,0.2,2.7c0,0,0.2,1.7,1.1,3c0.9,1.2,2.2,1.8,3.7,1.8
			c0.9,0,1.7-0.1,2.3-0.3c0.7-0.2,0.7-0.2,0.7-0.2c0.5-0.5,1-1.7,1-2.8v-0.1c0-1.1-0.9-2-2-2H46c-1.1,0-2-0.4-2-1s0.9-1,2-1h2.5
			c1.1,0,2,0.9,2,2V109.1z"/>
		<path d="M57,111.5c0,1.1-0.5,2-1.2,2s-1.2-0.9-1.2-2V97c0-1.1,0.5-2,1.2-2s1.2,0.9,1.2,2V111.5z"/>
		<path d="M73.6,96c0,0.5-0.9,1-2,1h-1.7c-1.1,0-2,0.9-2,2v12.5c0,1.1-0.5,2-1.2,2s-1.2-0.9-1.2-2V99c0-1.1-0.9-2-2-2h-1.7
			c-1.1,0-2-0.4-2-1s0.9-1,2-1h9.8C72.7,95,73.6,95.5,73.6,96z"/>
		<path d="M86.3,104c0,0.5-0.9,1-2,1h-3.7c-1.1,0-2,0.9-2,2v2.6c0,1.1,0.9,2,2,2h5c1.1,0,2,0.4,2,1s-0.9,1-2,1h-7.3
			c-1.1,0-2-0.9-2-2V97c0-1.1,0.9-2,2-2h7.2c1.1,0,2,0.4,2,1s-0.9,1-2,1h-4.9c-1.1,0-2,0.9-2,2v2c0,1.1,0.9,2,2,2h3.7
			C85.4,103,86.3,103.4,86.3,104z"/>
		<path d="M104.2,111.5c0,1.1-0.5,2-1.2,2s-1.7-0.8-2.2-1.7l-6.8-10.9c-0.6-0.9-1.1-0.8-1.1,0.3v10.2c0,1.1-0.5,2-1.2,2
			s-1.2-0.9-1.2-2V97c0-1.1,0.5-2,1.2-2s1.7,0.8,2.2,1.7l6.9,10.9c0.6,0.9,1.1,0.8,1.1-0.3V97c0-1.1,0.5-2,1.2-2s1.2,0.9,1.2,2
			V111.5z"/>
		<path d="M110.4,113.5c-1.1,0-2-0.9-2-2V97c0-1.1,0.9-2,2-2h1c1.1,0,2.9,0.1,4,0.2c0,0,0.9,0.1,2.1,0.8c1.2,0.7,2.1,1.7,2.8,3
			s0.8,2.5,0.8,2.5c0.1,1.1,0.2,2.3,0.2,2.6s-0.1,1.5-0.2,2.6c0,0-0.1,1.3-0.8,2.6s-1.6,2.3-2.8,3c-1.2,0.7-2.2,0.8-2.2,0.8
			c-1.1,0.1-2.9,0.2-4,0.2H110.4z M112.1,97c-0.8,0-1.4,0.9-1.4,2v10.5c0,1.1,0.6,2,1.2,2s2.1-0.2,3.2-0.4c0,0,1.3-0.2,2.3-1.4
			c1-1.2,1.3-3,1.3-3c0.1-1.1,0.3-2.2,0.3-2.5s-0.1-1.4-0.3-2.5c0,0-0.2-1.7-1.2-2.9c-1-1.2-2.1-1.4-2.1-1.4
			C114.4,97.2,112.9,97,112.1,97z"/>
		<path d="M135.4,110.5c-0.4-1-1.6-1.9-2.7-1.9h-3.5c-1.1,0-2.3,0.9-2.7,1.9l-0.4,1.1c-0.4,1-1.2,1.9-1.9,1.9s-0.9-0.8-0.5-1.9
			l5.4-14.7c0.4-1,1.2-1.9,1.7-1.9s1.3,0.8,1.7,1.9l5.4,14.7c0.4,1,0.1,1.9-0.5,1.9s-1.5-0.8-1.9-1.9L135.4,110.5z M128.6,104.8
			c-0.4,1,0.2,1.9,1.3,1.9h2.1c1.1,0,1.7-0.8,1.3-1.9l-1.7-4.9c-0.4-1-1-1-1.3,0L128.6,104.8z"/>
		<path d="M154.9,111.5c0,1.1-0.5,2-1.2,2s-1.7-0.8-2.2-1.7l-6.8-10.9c-0.6-0.9-1.1-0.8-1.1,0.3v10.2c0,1.1-0.5,2-1.2,2
			s-1.2-0.9-1.2-2V97c0-1.1,0.5-2,1.2-2s1.7,0.8,2.2,1.7l6.9,10.9c0.6,0.9,1.1,0.8,1.1-0.3V97c0-1.1,0.5-2,1.2-2s1.2,0.9,1.2,2
			V111.5z"/>
		<path d="M171,107.6c0.7,0,1,0.9,0.7,1.9c0,0-0.4,1.5-1.6,2.6c-1.2,1.1-2.7,1.6-4.7,1.6c-2.1,0-3.8-0.8-5.1-2.3
			c-1.3-1.6-1.6-4.3-1.6-4.3c-0.1-1.1-0.3-2.4-0.3-2.9s0.1-1.8,0.2-2.9c0,0,0.1-1.2,0.7-2.5c0.6-1.3,1.4-2.3,2.5-3
			c1.1-0.7,2.3-1,3.8-1c1.9,0,3.4,0.5,4.6,1.6c1.1,1.1,1.5,2.6,1.5,2.6c0.3,1.1-0.1,1.9-0.7,1.9s-1.4-0.9-1.7-1.9
			c0,0-0.2-0.6-0.8-1.3s-1.6-1-2.9-1c-1.5,0-2.7,0.6-3.5,1.7c-0.9,1.2-1.1,2.9-1.1,2.9c-0.1,1.1-0.2,2.4-0.2,2.9s0.1,1.8,0.2,2.9
			c0,0,0.2,1.6,1,2.8s1.9,1.8,3.4,1.8c1.3,0,2.3-0.3,3-0.9c0.7-0.6,0.9-1.3,0.9-1.3C169.6,108.5,170.4,107.6,171,107.6z"/>
		<path d="M185.5,104c0,0.5-0.9,1-2,1h-3.7c-1.1,0-2,0.9-2,2v2.6c0,1.1,0.9,2,2,2h5c1.1,0,2,0.4,2,1s-0.9,1-2,1h-7.3
			c-1.1,0-2-0.9-2-2V97c0-1.1,0.9-2,2-2h7.2c1.1,0,2,0.4,2,1s-0.9,1-2,1h-4.9c-1.1,0-2,0.9-2,2v2c0,1.1,0.9,2,2,2h3.7
			C184.6,103,185.5,103.4,185.5,104z"/>
	</g>
</g>
</svg>
